
<svg width="308px" height="308px" viewBox="0 0 308 308" version="1.1" xmlns="http://www.w3.org/2000/svg" xmlns:xlink="http://www.w3.org/1999/xlink">
    <!-- Generator: Sketch 51.2 (57519) - http://www.bohemiancoding.com/sketch -->
    <desc>Created with Sketch.</desc>
    <defs>
        <linearGradient x1="100%" y1="0%" x2="55.5329993%" y2="54.0971984%" id="linearGradient-1">
            <stop stop-color="#FFFFFF" stop-opacity="0.5" offset="0%"></stop>
            <stop stop-color="#000000" stop-opacity="0.5" offset="100%"></stop>
        </linearGradient>
        <path d="M65.1837662,0 L346,0 L346,280.816234 C346,295.727922 333.911688,307.816234 319,307.816234 C311.839155,307.816234 304.971599,304.971599 299.908117,299.908117 L46.0918831,46.0918831 C35.5477272,35.5477272 35.5477272,18.4522728 46.0918831,7.90811691 C51.1553653,2.84463469 58.022921,8.42085329e-15 65.1837662,7.10542736e-15 Z" id="path-2"></path>
    </defs>
    <g id="Page-1" stroke="none" stroke-width="1" fill="none" fill-rule="evenodd">
        <g id="Desktop-HD" transform="translate(-1087.000000, -539.000000)">
            <g id="Group-2" transform="translate(1049.000000, 539.000000)">
                <g id="Rectangle-18">
                    <use fill="#4A90E2" xlink:href="#path-2"></use>
                    <use fill-opacity="0.1" fill="url(#linearGradient-1)" style="mix-blend-mode: multiply;" xlink:href="#path-2"></use>
                </g>
                <path d="M243.5,47 C207.86375,47 179,75.92445 179,111.599553 C179,140.147172 197.47925,164.355855 223.101875,172.888379 C226.326875,173.496692 227.509375,171.499489 227.509375,169.782218 C227.509375,168.247978 227.455625,164.18359 227.42875,158.800293 C209.487,162.6978 205.703,150.133187 205.703,150.133187 C202.76825,142.677322 198.527375,140.685502 198.527375,140.685502 C192.68475,136.68033 198.978875,136.761079 198.978875,136.761079 C205.45575,137.213276 208.858125,143.414833 208.858125,143.414833 C214.609375,153.293182 223.9565,150.440035 227.64375,148.787363 C228.22425,144.609925 229.885125,141.762161 231.72875,140.147172 C217.404375,138.532184 202.349,132.976622 202.349,108.224227 C202.349,101.172109 204.848375,95.4119819 208.987125,90.8900131 C208.2615,89.2588744 206.084625,82.6912532 209.5515,73.7926647 C209.5515,73.7926647 214.953375,72.0592434 227.289,80.4141189 C232.449,78.9767788 237.9315,78.2661838 243.414,78.233884 C248.8965,78.2661838 254.379,78.9767788 259.539,80.4141189 C271.794,72.0592434 277.195875,73.7926647 277.195875,73.7926647 C280.66275,82.6912532 278.485875,89.2588744 277.840875,90.8900131 C281.95275,95.4119819 284.452125,101.172109 284.452125,108.224227 C284.452125,133.041222 269.37525,138.505267 255.024,140.09334 C257.2815,142.031326 259.37775,145.993432 259.37775,152.044257 C259.37775,160.68983 259.297125,167.634282 259.297125,169.733768 C259.297125,171.429506 260.425875,173.448242 263.7315,172.802247 C289.536875,164.328939 308,140.104106 308,111.599553 C308,75.92445 279.120125,47 243.5,47" id="Shape" fill="#FFFFFF" fill-rule="nonzero"></path>
            </g>
        </g>
    </g>
</svg>